HIERARCHY
ROOT Hips
{
 OFFSET 0.000000 0.000000 0.000000
 CHANNELS 6 Xposition Yposition Zposition Yrotation Xrotation Zrotation
 JOINT Chest
 {
  OFFSET 0.000000 9.585900 0.002600
  CHANNELS 3 Yrotation Xrotation Zrotation
  JOINT Chest2
  {
   OFFSET 0.000000 9.601200 -0.005300
   CHANNELS 3 Yrotation Xrotation Zrotation
   JOINT Chest3
   {
    OFFSET 0.000000 9.561800 0.000000
    CHANNELS 3 Yrotation Xrotation Zrotation
    JOINT Chest4
    {
     OFFSET 0.000000 9.552100 0.000000
     CHANNELS 3 Yrotation Xrotation Zrotation
     JOINT Neck
     {
      OFFSET 0.000000 14.453000 0.000000
      CHANNELS 3 Yrotation Xrotation Zrotation
      JOINT Head
      {
       OFFSET 0.000000 8.936500 -0.011300
       CHANNELS 3 Yrotation Xrotation Zrotation
       End Site
       {
        OFFSET 0.000000 17.073600 -0.006000
       }
      }
     }
     JOINT RightCollar
     {
      OFFSET -2.921100 9.558500 0.000000
      CHANNELS 3 Yrotation Xrotation Zrotation
      JOINT RightShoulder
      {
       OFFSET -13.519700 0.000000 0.000000
       CHANNELS 3 Yrotation Xrotation Zrotation
       JOINT RightElbow
       {
        OFFSET 0.000000 -29.696600 0.000000
        CHANNELS 3 Yrotation Xrotation Zrotation
        JOINT RightWrist
        {
         OFFSET 0.000000 -24.004700 0.000000
         CHANNELS 3 Yrotation Xrotation Zrotation
         End Site
         {
          OFFSET 0.000000 -17.728500 0.000000
         }
        }
       }
      }
     }
     JOINT LeftCollar
     {
      OFFSET 2.921100 9.558500 0.000000
      CHANNELS 3 Yrotation Xrotation Zrotation
      JOINT LeftShoulder
      {
       OFFSET 13.519700 0.000000 0.000000
       CHANNELS 3 Yrotation Xrotation Zrotation
       JOINT LeftElbow
       {
        OFFSET 0.000000 -29.696600 0.000000
        CHANNELS 3 Yrotation Xrotation Zrotation
        JOINT LeftWrist
        {
         OFFSET 0.000000 -24.004700 0.000000
         CHANNELS 3 Yrotation Xrotation Zrotation
         End Site
         {
          OFFSET 0.000000 -17.728500 0.000000
         }
        }
       }
      }
     }
    }
   }
  }
 }
 JOINT RightHip
 {
  OFFSET -7.771700 -0.012900 -0.001300
  CHANNELS 3 Yrotation Xrotation Zrotation
  JOINT RightKnee
  {
   OFFSET 0.000000 -40.869800 0.001200
   CHANNELS 3 Yrotation Xrotation Zrotation
   JOINT RightAnkle
   {
    OFFSET 0.000000 -39.717900 0.002100
    CHANNELS 3 Yrotation Xrotation Zrotation
    JOINT RightToe
    {
     OFFSET 0.000000 -4.965400 11.033500
     CHANNELS 3 Yrotation Xrotation Zrotation
     End Site
     {
      OFFSET 0.000000 -1.423100 5.872300
     }
    }
   }
  }
 }
 JOINT LeftHip
 {
  OFFSET 7.771700 -0.012900 -0.001300
  CHANNELS 3 Yrotation Xrotation Zrotation
  JOINT LeftKnee
  {
   OFFSET 0.000000 -40.869800 0.001200
   CHANNELS 3 Yrotation Xrotation Zrotation
   JOINT LeftAnkle
   {
    OFFSET 0.000000 -39.717900 0.002100
    CHANNELS 3 Yrotation Xrotation Zrotation
    JOINT LeftToe
    {
     OFFSET 0.000000 -4.965400 11.033500
     CHANNELS 3 Yrotation Xrotation Zrotation
     End Site
     {
      OFFSET 0.000000 -1.423100 5.872300
     }
    }
   }
  }
 }
}
MOTION
Frames: 15
Frame Time: 0.008333
-219.125202 57.453574 134.932510 178.984858 -29.100544 -1.007470 0.949024 20.694750 3.096136 -0.010841 2.667107 0.405816 0.035932 4.384351 0.636002 0.361471 17.654335 2.707792 -0.432618 10.942935 -4.652656 1.144325 -15.361042 -8.700035 2.197559 -1.703109 -1.679250 11.549616 -15.453817 -14.897169 -135.475928 -83.248359 175.619345 10.200931 -19.254111 -57.345636 -7.064292 -4.607376 -1.992621 -2.999059 -11.960272 -1.705588 -98.262823 -79.136157 64.742372 -7.067385 -18.291760 38.517421 3.832930 -47.080385 -3.817423 -12.731641 68.342326 -18.415890 5.812018 23.905443 6.953404 -0.467519 -16.809383 3.758900 -10.306872 -44.568738 1.030063 33.190628 69.545791 36.439387 -13.820024 3.457330 -6.889372 -0.084454 0.368223 -0.043998
-219.124662 57.453555 134.933236 178.982394 -29.091397 -1.004197 0.962625 20.692511 3.091201 -0.005123 2.669029 0.402309 0.031039 4.378338 0.641114 0.430524 17.660490 2.681727 -0.478766 10.919910 -4.613322 1.119478 -15.361611 -8.676729 2.202444 -1.735743 -1.642894 11.548047 -15.438642 -14.929464 -135.174256 -83.242458 175.300636 10.216867 -19.257254 -57.366087 -7.107835 -4.623490 -1.953114 -3.013043 -11.970789 -1.678692 -98.262816 -79.147735 64.726907 -7.088842 -18.289387 38.514474 3.822737 -47.092310 -3.804639 -12.761773 68.334148 -18.452686 5.795700 23.919785 6.940070 -0.447925 -16.814386 3.760292 -10.304275 -44.578281 1.028081 33.205340 69.549296 36.452687 -13.813072 3.453128 -6.883421 -0.090527 0.366906 -0.046438
-219.123771 57.453501 134.934815 178.980992 -29.077539 -1.002513 0.967408 20.680907 3.089137 0.009375 2.674894 0.394482 0.048188 4.380320 0.635405 0.448949 17.657223 2.683434 -0.496908 10.903037 -4.599814 1.079084 -15.396772 -8.645975 2.221083 -1.761732 -1.632489 11.568866 -15.429442 -14.962622 -134.842609 -83.238804 174.955476 10.230374 -19.262333 -57.391403 -7.106503 -4.647117 -1.948279 -3.017869 -12.000265 -1.637191 -98.144799 -79.175942 64.567191 -7.114350 -18.295308 38.502148 3.813120 -47.106761 -3.798094 -12.762709 68.329334 -18.460397 5.814166 23.916349 6.933879 -0.477124 -16.808000 3.775210 -10.309655 -44.593685 1.031321 33.218248 69.553462 36.463482 -13.808764 3.452942 -6.880636 -0.093467 0.362386 -0.048345
-219.122538 57.454055 134.936095 178.993291 -29.066493 -1.008561 0.982028 20.679215 3.086758 0.012859 2.674488 0.393965 0.060593 4.381333 0.630213 0.466936 17.653937 2.684923 -0.515734 10.886338 -4.584169 1.023448 -15.471071 -8.599869 2.238503 -1.791773 -1.622007 11.596975 -15.419833 -14.995246 -134.488507 -83.237872 174.583632 10.218082 -19.270601 -57.334690 -7.141624 -4.659458 -1.922029 -3.007715 -12.021011 -1.621727 -98.194592 -79.189780 64.608980 -7.112326 -18.283568 38.489952 3.789289 -47.116760 -3.791909 -12.773123 68.322237 -18.472011 5.837042 23.916156 6.921048 -0.459574 -16.807951 3.778614 -10.330107 -44.605480 1.037688 33.201522 69.557978 36.447201 -13.805799 3.459354 -6.884166 -0.091940 0.353734 -0.047615
-219.121451 57.454177 134.938936 178.989836 -29.045674 -1.005063 1.030826 20.673201 3.078090 -0.003385 2.667561 0.405823 0.057193 4.376140 0.630377 0.498541 17.654634 2.675891 -0.534640 10.870808 -4.566458 0.980523 -15.502211 -8.558374 2.255618 -1.820758 -1.609655 11.631289 -15.410766 -15.030140 -134.130142 -83.237274 174.201928 10.229853 -19.269323 -57.339978 -7.162867 -4.672353 -1.908014 -3.010791 -12.037867 -1.594011 -98.235781 -79.201720 64.636235 -7.115480 -18.274791 38.493222 3.787863 -47.137589 -3.792584 -12.826525 68.306274 -18.517403 5.847618 23.925919 6.906005 -0.458232 -16.806932 3.783083 -10.335360 -44.626419 1.044948 33.202207 69.557675 36.444196 -13.808466 3.464948 -6.884277 -0.089086 0.345360 -0.045894
-219.120891 57.455470 134.940340 178.996242 -29.034751 -1.001143 1.049765 20.668486 3.068076 0.024011 2.673234 0.390424 0.014274 4.364073 0.655921 0.542676 17.658356 2.655131 -0.554046 10.856092 -4.547379 0.945535 -15.512884 -8.522470 2.273472 -1.847979 -1.595248 11.667949 -15.404270 -15.069148 -133.780097 -83.234922 173.828864 10.249020 -19.261987 -57.386381 -7.166223 -4.696284 -1.908952 -3.049111 -12.026238 -1.553286 -98.339537 -79.208022 64.751027 -7.105080 -18.258753 38.474494 3.781770 -47.147364 -3.799095 -12.841659 68.298024 -18.529411 5.839658 23.933860 6.894432 -0.460959 -16.806841 3.786347 -10.338131 -44.637802 1.039696 33.203841 69.556056 36.444927 -13.817852 3.470657 -6.884012 -0.085290 0.337695 -0.046033
-219.119468 57.457332 134.941316 179.008264 -29.026776 -1.002192 1.052553 20.663721 3.062366 0.041635 2.675709 0.382823 0.017700 4.364382 0.654795 0.565168 17.656090 2.646559 -0.583375 10.845581 -4.515041 0.922525 -15.527367 -8.498893 2.294028 -1.873667 -1.579869 11.704128 -15.400875 -15.108906 -133.482530 -83.231159 173.510834 10.255445 -19.264828 -57.380161 -7.179932 -4.715097 -1.895171 -3.073738 -12.019644 -1.523120 -98.436303 -79.219699 64.848704 -7.092676 -18.237263 38.453852 3.757019 -47.151425 -3.796826 -12.826773 68.290083 -18.516578 5.832709 23.935653 6.881785 -0.460166 -16.803278 3.787644 -10.352810 -44.646450 1.040218 33.203042 69.555977 36.441475 -13.825399 3.479019 -6.885028 -0.078710 0.328950 -0.047652
-219.116936 57.459904 134.941404 179.017905 -29.024711 -1.004792 1.059721 20.664344 3.059825 0.058206 2.678259 0.375088 0.024275 4.363552 0.652255 0.584378 17.655340 2.638751 -0.611820 10.834754 -4.482541 0.877610 -15.578462 -8.458536 2.317372 -1.897319 -1.565233 11.738255 -15.401585 -15.146432 -133.280658 -83.228114 173.290755 10.260688 -19.267188 -57.371211 -7.197923 -4.731683 -1.871885 -3.074770 -12.023055 -1.498869 -98.496543 -79.243022 64.909434 -7.092347 -18.229208 38.449266 3.734233 -47.147653 -3.794649 -12.794098 68.283211 -18.483456 5.831591 23.932758 6.874240 -0.474259 -16.796743 3.788936 -10.366009 -44.648165 1.043818 33.199937 69.560741 36.435210 -13.825644 3.481231 -6.885243 -0.085054 0.322248 -0.046140
-219.114521 57.461761 134.942883 179.037329 -29.012306 -1.007102 1.070111 20.656283 3.050610 0.046127 2.675875 0.380239 0.061887 4.368455 0.633018 0.566254 17.649113 2.656220 -0.613413 10.824451 -4.484110 0.840878 -15.588264 -8.419955 2.329540 -1.908706 -1.558286 11.811759 -15.409162 -15.200901 -133.163411 -83.225445 173.157184 10.269136 -19.267957 -57.378405 -7.188987 -4.747273 -1.868815 -3.074184 -12.023900 -1.479837 -98.725558 -79.262174 65.154627 -7.093353 -18.225675 38.453766 3.708149 -47.152261 -3.798296 -12.751456 68.275295 -18.441568 5.822059 23.929219 6.858158 -0.469903 -16.789477 3.792161 -10.384279 -44.663384 1.042443 33.190993 69.565119 36.423781 -13.828081 3.489485 -6.883093 -0.087665 0.312924 -0.047552
-219.110231 57.464047 134.943520 179.048445 -29.005247 -1.011956 1.090839 20.655404 3.048470 0.033724 2.671907 0.385540 0.064389 4.368104 0.631626 0.619590 17.651946 2.634154 -0.633344 10.806180 -4.479158 0.762280 -15.608672 -8.343380 2.354735 -1.937047 -1.542781 11.827382 -15.408259 -15.234177 -133.112478 -83.222899 173.089768 10.269063 -19.257879 -57.431391 -7.239804 -4.756542 -1.823856 -3.060691 -12.034243 -1.471380 -98.858687 -79.269939 65.288002 -7.098286 -18.220110 38.453189 3.683898 -47.153414 -3.785728 -12.714294 68.267631 -18.406599 5.806631 23.932439 6.832653 -0.466912 -16.787565 3.805270 -10.396329 -44.667017 1.045661 33.184952 69.563441 36.416298 -13.821988 3.490064 -6.877279 -0.085388 0.311647 -0.051369
-219.105456 57.466372 134.943743 179.055488 -29.000162 -1.013759 1.144784 20.658821 3.052783 0.013720 2.666274 0.390525 0.070297 4.367507 0.629222 0.657066 17.650856 2.624125 -0.677064 10.794713 -4.444914 0.676131 -15.662902 -8.284717 2.377881 -1.965056 -1.530965 11.843485 -15.405172 -15.266371 -133.110820 -83.222439 173.070292 10.290506 -19.264481 -57.427336 -7.294660 -4.762474 -1.781922 -3.038917 -12.045757 -1.468049 -98.976880 -79.274446 65.397084 -7.117023 -18.221717 38.461048 3.668245 -47.154734 -3.776347 -12.679478 68.263210 -18.371965 5.784001 23.937976 6.806410 -0.460801 -16.787875 3.817506 -10.401775 -44.670861 1.044796 33.194228 69.562921 36.427795 -13.822744 3.490401 -6.875600 -0.092192 0.306190 -0.050108
-219.099628 57.468299 134.944236 179.064526 -28.992270 -1.020111 1.180306 20.657970 3.058683 0.044540 2.669562 0.381671 0.082175 4.364677 0.625627 0.647043 17.642809 2.637065 -0.720458 10.787915 -4.410138 0.632886 -15.691165 -8.256940 2.396623 -1.987036 -1.523804 11.880862 -15.404658 -15.305403 -133.136267 -83.223760 173.077259 10.315822 -19.274594 -57.425378 -7.285609 -4.779007 -1.776024 -3.080926 -12.043779 -1.443296 -98.974175 -79.279806 65.374745 -7.161683 -18.239098 38.499999 3.654245 -47.164312 -3.761746 -12.684291 68.261760 -18.376131 5.787551 23.949987 6.773414 -0.470856 -16.798130 3.847193 -10.410965 -44.678541 1.050588 33.193436 69.564107 36.431726 -13.825730 3.495770 -6.876910 -0.086626 0.298638 -0.049549
-219.095922 57.469613 134.945157 179.072405 -28.979937 -1.012085 1.194320 20.650970 3.048036 0.056791 2.670028 0.379336 0.088570 4.362508 0.623636 0.641420 17.638959 2.642784 -0.726920 10.779911 -4.410693 0.568122 -15.714383 -8.209432 2.445297 -2.004698 -1.536596 11.916337 -15.404660 -15.344248 -133.189939 -83.223976 173.113225 10.329470 -19.279969 -57.437651 -7.268518 -4.787124 -1.782191 -3.052221 -12.056489 -1.425750 -99.194337 -79.280795 65.561986 -7.138107 -18.219858 38.469003 3.662114 -47.177888 -3.777873 -12.696968 68.259665 -18.379624 5.777159 23.961976 6.752526 -0.462418 -16.805308 3.855003 -10.403289 -44.691279 1.031891 33.192749 69.560564 36.436815 -13.820909 3.501603 -6.871667 -0.085226 0.293611 -0.053613
-219.093202 57.470001 134.947169 179.077658 -28.958807 -0.997408 1.191305 20.632117 3.030050 0.086241 2.673457 0.374708 0.094741 4.359757 0.621603 0.635047 17.636278 2.646261 -0.731488 10.771652 -4.412794 0.518688 -15.721648 -8.170198 2.492872 -2.023021 -1.548982 11.949007 -15.403276 -15.380174 -133.278895 -83.222159 173.182706 10.340162 -19.282725 -57.444308 -7.260939 -4.793481 -1.779193 -3.022683 -12.062027 -1.415248 -99.639763 -79.264353 66.024586 -7.070347 -18.179570 38.390694 3.680149 -47.200740 -3.803886 -12.710411 68.258348 -18.387020 5.771736 23.969796 6.739384 -0.465791 -16.808375 3.863331 -10.394107 -44.714078 1.011646 33.193089 69.559764 36.438419 -13.807221 3.504131 -6.869595 -0.095141 0.291856 -0.052402
-219.089676 57.471268 134.947146 179.083163 -28.950520 -0.989235 1.218405 20.629861 3.026693 0.091062 2.671457 0.373440 0.090390 4.355650 0.621835 0.666583 17.632149 2.638320 -0.764062 10.762956 -4.395447 0.471392 -15.726391 -8.134197 2.511574 -2.042132 -1.544743 11.981286 -15.398998 -15.413577 -133.399141 -83.219934 173.277082 10.348188 -19.285148 -57.447247 -7.280641 -4.797699 -1.759786 -3.022255 -12.060798 -1.404226 -99.957424 -79.244205 66.364427 -7.050293 -18.170486 38.362690 3.688696 -47.208491 -3.820168 -12.713760 68.255123 -18.385388 5.782267 23.978256 6.729286 -0.473252 -16.814735 3.872505 -10.389772 -44.723047 0.998711 33.196055 69.559705 36.442920 -13.806897 3.506553 -6.867494 -0.097438 0.287312 -0.053179
